<?xml version="1.0" standalone="no"?>
<!DOCTYPE svg PUBLIC "-//W3C//DTD SVG 20010904//EN"
 "http://www.w3.org/TR/2001/REC-SVG-20010904/DTD/svg10.dtd">
<svg version="1.0" xmlns="http://www.w3.org/2000/svg"
 width="700.000000pt" height="700.000000pt" viewBox="0 0 700.000000 700.000000"
 preserveAspectRatio="xMidYMid meet">
<metadata>
Created by potrace 1.14, written by Peter Selinger 2001-2017
</metadata>
<g transform="translate(0.000000,700.000000) scale(0.100000,-0.100000)"
fill="#000000" stroke="none">
<path d="M0 3500 l0 -3500 3500 0 3500 0 0 3500 0 3500 -3500 0 -3500 0 0
-3500z m956 3005 c39 -16 64 -62 64 -118 l0 -35 57 -4 c70 -6 103 -37 103 -98
0 -61 -33 -92 -103 -98 l-57 -4 0 -35 c0 -88 -64 -147 -135 -123 -45 15 -65
49 -65 110 l0 50 -45 0 c-57 0 -93 17 -111 51 -40 79 12 149 111 149 l45 0 0
53 c0 57 19 90 60 106 34 13 36 13 76 -4z m612 -18 c15 -16 51 -108 110 -288
l87 -264 269 -91 c304 -102 323 -113 313 -187 -3 -21 -13 -47 -23 -58 -10 -11
-122 -53 -278 -105 -143 -47 -266 -91 -273 -96 -6 -5 -51 -127 -98 -271 -96
-289 -106 -307 -175 -307 -69 0 -79 18 -175 307 -47 144 -92 266 -98 271 -7 6
-129 49 -273 96 -158 52 -268 94 -278 105 -10 11 -20 37 -23 58 -10 74 9 85
313 187 l269 91 87 263 c47 145 95 273 105 284 39 44 100 46 141 5z m3014
-817 c267 -56 486 -172 680 -359 217 -208 346 -439 410 -734 31 -145 31 -407
0 -554 -45 -207 -130 -397 -250 -559 -45 -61 -301 -325 -801 -826 l-735 -738
-850 0 -851 0 -273 -272 -272 -273 -139 145 -139 145 269 270 269 270 0 851 0
850 748 745 c530 528 770 761 827 801 191 135 420 227 641 257 108 15 354 5
466 -19z m-2428 -349 c14 -15 22 -39 26 -79 l5 -57 57 -5 c69 -6 97 -29 105
-87 4 -34 1 -45 -24 -73 -25 -28 -38 -34 -86 -38 l-57 -4 0 -50 c0 -64 -38
-108 -95 -108 -66 0 -105 46 -105 126 0 32 -2 34 -34 34 -80 0 -126 39 -126
105 0 57 44 95 108 95 l50 0 4 57 c4 48 10 61 38 86 28 25 39 28 73 24 22 -3
49 -15 61 -26z m2818 -3072 c25 -13 48 -68 48 -114 0 -34 1 -35 41 -35 73 0
118 -39 119 -103 0 -59 -43 -97 -108 -97 l-50 0 -4 -55 c-8 -91 -75 -138 -146
-101 -40 21 -46 31 -52 96 l-5 55 -40 3 c-68 4 -85 11 -105 45 -28 45 -25 81
8 118 24 27 37 33 85 37 l57 4 0 50 c0 41 5 54 29 79 32 31 84 39 123 18z
m592 -11 c19 -18 45 -84 111 -284 47 -144 91 -266 98 -272 6 -5 129 -48 271
-95 146 -48 268 -94 278 -105 11 -10 22 -38 25 -60 10 -73 -15 -88 -305 -182
-138 -45 -258 -87 -267 -94 -9 -6 -55 -130 -103 -275 -94 -286 -104 -304 -172
-304 -68 0 -78 18 -172 303 -53 162 -94 270 -105 277 -9 7 -129 50 -267 94
-287 93 -313 108 -303 180 3 22 13 49 22 59 10 11 125 55 279 106 143 48 267
91 273 96 7 6 51 128 98 272 95 289 105 306 175 306 26 0 47 -7 64 -22z m559
-1149 c40 -21 57 -51 57 -106 l0 -53 45 0 c57 0 93 -17 111 -51 23 -45 17 -78
-20 -115 -30 -30 -40 -34 -85 -34 l-51 0 0 -54 c0 -44 -5 -58 -25 -79 -73 -72
-175 -15 -175 98 0 34 -1 35 -40 35 -47 0 -95 22 -110 49 -20 39 -12 91 19
122 25 24 37 29 80 29 l51 0 0 43 c0 90 75 151 143 116z"/>
<path d="M1461 5978 c-57 -176 -95 -214 -274 -274 l-111 -37 119 -41 c106 -36
126 -46 171 -91 47 -46 55 -60 90 -167 21 -65 41 -118 44 -118 3 0 23 53 44
118 35 107 43 121 91 168 46 46 64 55 171 91 l119 40 -112 37 c-179 60 -217
98 -274 274 -18 56 -36 102 -39 102 -3 0 -21 -46 -39 -102z"/>
<path d="M4134 5286 c-160 -31 -301 -89 -417 -174 -34 -24 -367 -349 -739
-721 l-678 -676 0 -565 0 -565 928 928 927 927 143 -142 142 -143 -527 -527
-528 -528 565 0 566 0 281 283 c354 355 414 442 476 687 30 121 30 339 0 460
-94 370 -372 650 -738 741 -104 26 -304 34 -401 15z"/>
<path d="M2785 2500 l-200 -200 565 0 565 0 200 200 200 200 -565 0 -565 0
-200 -200z"/>
<path d="M5457 1717 c-57 -173 -91 -206 -281 -268 -53 -17 -96 -32 -96 -34 0
-2 49 -20 109 -40 177 -59 216 -97 272 -272 18 -57 36 -103 39 -103 3 0 22 51
43 113 57 173 89 203 280 266 53 18 97 34 97 36 0 2 -43 18 -96 35 -189 60
-224 94 -281 267 -21 62 -40 113 -43 113 -3 0 -22 -51 -43 -113z"/>
</g>
</svg>
